<?xml version="1.0" standalone="no"?>
<!DOCTYPE svg PUBLIC "-//W3C//DTD SVG 20010904//EN"
 "http://www.w3.org/TR/2001/REC-SVG-20010904/DTD/svg10.dtd">
<svg version="1.0" xmlns="http://www.w3.org/2000/svg"
 width="300.000000pt" height="300.000000pt" viewBox="0 0 300.000000 300.000000"
 preserveAspectRatio="xMidYMid meet">
<metadata>
Created by potrace 1.10, written by Peter Selinger 2001-2011
</metadata>
<g transform="translate(0.000000,300.000000) scale(0.100000,-0.100000)"
fill="#000000" stroke="none">
<path d="M490 1550 l0 -220 35 0 c34 0 35 1 35 42 0 32 6 49 27 70 15 15 30
28 33 28 4 0 28 -31 55 -70 47 -68 49 -70 91 -70 l43 0 -57 80 c-31 45 -61 87
-67 95 -7 11 4 29 50 75 33 33 62 60 66 60 5 0 97 -204 133 -295 19 -49 -35
-91 -83 -65 -15 7 -21 4 -30 -17 -15 -33 -5 -44 51 -50 34 -4 50 0 78 19 30
20 45 49 117 218 46 107 83 196 83 198 0 2 -16 2 -36 0 l-36 -3 -47 -117 c-25
-65 -49 -118 -52 -118 -3 0 -27 54 -53 120 l-48 120 -81 0 -82 0 -77 -77 -78
-78 0 138 0 137 -35 0 -35 0 0 -220z m66 -71 c3 -6 -1 -18 -10 -27 -15 -15
-16 -14 -16 11 0 27 13 36 26 16z"/>
<path d="M1190 1490 l0 -160 40 0 40 0 0 103 c0 96 2 105 23 126 13 12 38 23
55 24 29 2 32 5 32 35 0 27 -4 32 -24 32 -13 0 -40 -11 -60 -25 l-36 -24 0 24
c0 22 -4 25 -35 25 l-35 0 0 -160z"/>
<path d="M1484 1626 c-55 -34 -78 -82 -72 -153 8 -93 70 -148 168 -148 72 0
121 30 151 91 54 113 -14 224 -144 232 -52 2 -68 -1 -103 -22z m151 -52 c13
-9 29 -31 35 -50 24 -72 -17 -136 -90 -138 -36 -1 -46 4 -72 33 -27 30 -30 39
-25 80 9 78 87 118 152 75z"/>
<path d="M1848 1634 c-33 -18 -48 -43 -48 -82 0 -48 27 -71 104 -90 78 -19
104 -43 72 -68 -26 -18 -77 -18 -124 1 -34 15 -38 15 -49 -1 -21 -29 -15 -40
28 -54 91 -30 187 -11 215 42 32 63 -8 120 -93 133 -62 9 -83 21 -83 46 0 30
45 43 103 30 54 -12 62 -10 70 18 4 15 -2 22 -26 30 -43 16 -137 13 -169 -5z"/>
<path d="M2035 1525 c-30 -13 -29 -13 28 -14 107 -2 177 -60 177 -149 0 -72
-40 -125 -107 -144 -49 -13 -126 14 -161 58 -15 19 -30 34 -34 34 -16 0 -7
-30 18 -60 66 -78 177 -88 254 -24 42 36 62 79 62 134 0 125 -129 215 -237
165z"/>
</g>
</svg>
